<svg id="Layer_1" data-name="Layer 1" xmlns="http://www.w3.org/2000/svg" viewBox="0 0 381.71 347"><defs><style>.cls-1{fill:#ffb266;}.cls-2{fill:#ff8b00;}</style></defs><title>Artboard 1 copy 30</title><path class="cls-1" d="M155.13,288c-2.3,2.3-6.66,5.95-9,3.65l-95.6-95.6c-2.29-2.29-.15-8.16,2.15-10.46L173.26,65.09c1.15-1.15,27.8-1.36,55.65-2.76l52,52c-.77,28.49-3.93,52-5.19,53.22Z"/><path class="cls-2" d="M224,142.74a21.54,21.54,0,1,1,15.26-6.31A21.49,21.49,0,0,1,224,142.74Zm0-31a9.48,9.48,0,1,0,6.71,16.17h0A9.47,9.47,0,0,0,224,111.71Z"/><path class="cls-2" d="M235.26,129.71c-7,0-12.89-2.14-17.14-6.39a6,6,0,1,1,8.56-8.55c3.69,3.7,11.37,3.81,21,.32,11.35-4.09,23.69-12.44,34.77-23.52S301.94,68.14,306,56.79c3.49-9.68,3.38-17.36-.32-21-7.71-7.72-32.54-.09-55.83,23.2a123.61,123.61,0,0,0-10.21,11.57,6,6,0,0,1-9.56-7.41,135.72,135.72,0,0,1,11.22-12.71C268.73,23,300.09,13,314.26,27.19c7.25,7.25,8.37,19.22,3.15,33.71-4.68,13-14,26.9-26.35,39.22s-26.25,21.67-39.23,26.35A49.51,49.51,0,0,1,235.26,129.71Z"/><path class="cls-2" d="M219.49,318.7,294,165.38c.73-1.51-5.86-23.7-13.29-49.75-1.53,28-3.82,50.65-5,51.87L155.13,288c-2.3,2.3-6.66,5.95-9,3.65L93.65,239.16l-7.41,16.38c-1.42,2.92.33,5.9,3.25,7.32l121.87,58.83A6.31,6.31,0,0,0,219.49,318.7Z"/></svg>