<svg id="Layer_1" data-name="Layer 1" xmlns="http://www.w3.org/2000/svg" viewBox="0 0 720 347"><defs><style>.cls-1{fill:#ff8b00;}.cls-2{fill:#fff;}</style></defs><title>Artboard 1</title><path class="cls-1" d="M247.84,335.45q-9.08.71-18.39,1C119.7,340.28,18.58,320.23,14,319.31L37.59,161.79c.95.18,95.68,18.83,186.36,15.69,75.79-2.62,135.34-36.37,204.28-75.46,73.38-41.59,152-84.12,253.69-92l31.65,158c-68.17,2.36-141.1,35.17-206.88,72.46C434.68,281.26,353.56,327.24,247.84,335.45Z"/><path class="cls-2" d="M96.15,249.9l24.32,41-21.19-2.76L79,252.27,74.71,285,57.2,282.69l9.51-72.93L84.22,212,80,244.12l29-28.84L130,218Z"/><path class="cls-2" d="M178.54,234.33l-.31,15.39,24.67.5-.27,13.42-24.67-.5-.33,16.33,27.77.56-.29,14.25-45.42-.92,1.49-73.54,45.42.93-.29,14.14Z"/><path class="cls-2" d="M304.78,253.49a17.7,17.7,0,0,1,5.42,10.69q1.31,9.38-4.14,15.5t-17,7.74l-33.72,4.17L245.2,219.31,278,214.7q11.06-1.55,17.76,2.45t8,13a17.3,17.3,0,0,1-1.94,11.46,16.17,16.17,0,0,1-8.3,7A18.22,18.22,0,0,1,304.78,253.49Zm-37.92-6.86L278.31,245q9.1-1.28,8-9.11t-10.41-6.52L264.67,231ZM292,264.22a7.74,7.74,0,0,0-3.41-5.77c-1.91-1.24-4.44-1.64-7.57-1.2L268.6,259l2.29,16.38,12.48-1.75Q293.07,272.26,292,264.22Z"/><path class="cls-2" d="M367.2,252l22.16-8.92,4.9,12.79-38.4,16-22.49-69.41,16.49-6.32Z"/><path class="cls-2" d="M436.08,155.31a35.07,35.07,0,0,1,18.23,4.89,41.11,41.11,0,0,1,19.56,33.57,35.43,35.43,0,0,1-4.7,18.35A38.37,38.37,0,0,1,437,230.93,35.33,35.33,0,0,1,418.69,226a40.95,40.95,0,0,1-19.61-33.55,35.45,35.45,0,0,1,4.73-18.3,38.52,38.52,0,0,1,32.27-18.86Zm-19.31,31.41q-1.56,7.47,3.38,15.91t12.18,10.72q7.31,2.35,14.79-2t9-11.87q1.56-7.54-3.31-15.9t-12.19-10.71q-7.29-2.35-14.78,2T416.77,186.72Z"/><path class="cls-2" d="M525.75,104.94a35.25,35.25,0,0,1,17.92,5.9,41.17,41.17,0,0,1,17.66,34.62,35.38,35.38,0,0,1-5.73,18.06,38.37,38.37,0,0,1-33.18,17,35.34,35.34,0,0,1-18-5.93A40.94,40.94,0,0,1,486.73,140a35.46,35.46,0,0,1,5.74-18,38.52,38.52,0,0,1,33.28-17Zm-21,30.28q-2,7.38,2.48,16.08t11.57,11.38c4.76,1.85,9.73,1.45,14.87-1.19s8.3-6.38,9.62-11.34.52-10.32-2.42-16.06-6.79-9.53-11.56-11.38-9.73-1.45-14.87,1.19S506,130.31,504.71,135.22Z"/><path class="cls-2" d="M655.86,58.79l18.29,70.7-17.09,4.43L645.62,89.7l-3.76,48.15-14.79,3.82-26.76-40.35,11.46,44.31-17.09,4.42-18.29-70.7L597.28,74l31.83,44.31,6-54.09Z"/></svg>