<svg fill="none" height="150" viewBox="0 0 105 150" width="105" xmlns="http://www.w3.org/2000/svg">
    <path
        d="M97.4757 13.6581H6.96777V139.161C6.96777 144.684 11.4449 149.161 16.9678 149.161H87.4757C92.9986 149.161 97.4757 144.684 97.4757 139.161V13.6581Z"
        fill="#FF8B00" fill-opacity="0.2" />
    <path
        d="M97.4757 129.153H6.96777V140C6.96777 145.523 11.4449 150 16.9678 150H87.4757C92.9986 150 97.4757 145.523 97.4757 140V129.153Z"
        fill="#FFB980" />
    <path
        d="M87.6225 0H17.1145C11.5917 0 7.1145 4.47716 7.1145 10V34.0495H97.6225V10C97.6225 4.47715 93.1453 0 87.6225 0Z"
        fill="#FFB980" />
    <path
        d="M10.4517 51.0863C4.67931 51.0863 0 46.4197 0 40.6629V16.3419C0 12.5039 3.11939 9.39297 6.96779 9.39297H20.9034V40.6629C20.9034 46.4197 16.2241 51.0863 10.4517 51.0863Z"
        fill="#FF8B00" />
    <path
        d="M31.355 51.0863C25.5826 51.0863 20.9033 46.4196 20.9033 40.6629V9.39297H41.8067V40.6629C41.8067 46.4196 37.1274 51.0863 31.355 51.0863Z"
        fill="#2A98D0" />
    <path
        d="M52.2583 51.0863C46.4859 51.0863 41.8066 46.4196 41.8066 40.6629V9.39297H62.71V40.6629C62.71 46.4196 58.0307 51.0863 52.2583 51.0863Z"
        fill="#FF8B00" />
    <path
        d="M72.7218 51.0863C66.9495 51.0863 62.2701 46.4196 62.2701 40.6629V9.39297H83.1735V40.6629C83.1735 46.4196 78.4942 51.0863 72.7218 51.0863Z"
        fill="#2A98D0" />
    <path
        d="M93.7352 51.0863C99.5683 51.0863 104.297 46.4196 104.297 40.6629V16.3418C104.297 12.5039 101.145 9.39297 97.2557 9.39297H83.1735V40.6629C83.1735 46.4196 87.902 51.0863 93.7352 51.0863Z"
        fill="#FF8B00" />
    <ellipse cx="52.8819" cy="139.72" fill="white" rx="5.86762" ry="5.87061" />
</svg>
